# xmcd
#
# Track frame offsets:
#	150
#	18118
#	32247
#	46656
#	64960
#	75101
#	86661
#	102836
#	118039
#	149852
#	181240
#	195307
#	210353
#	227308
#	238144
#	252974
#	275715
#	298405
#	316318
#
# Disc length: 4418 seconds
#
# Revision: 0
# Processed by: cddbd v1.5.2PL0 Copyright (c) Steve Scherf et al.
# Submitted via: EZCDAudioConverter 2.1.7.1
#
DISCID=07114013
DTITLE=V/A - Strange Breaks and Mr. Thing III 2/2
DYEAR=1900
DGENRE=
TTITLE0=Dynamic Concept - La Da Da
TTITLE1=The Internationals - Give A Damn
TTITLE2=Nu-Sound Express, Ltd - One More Time, You All
TTITLE3=David T. Walker - Lay Lady Lay
TTITLE4=James Asher - Oriental Workload
TTITLE5=Dum-Dum - Art The Grass
TTITLE6=Disco Orchestral - Do It Again
TTITLE7=Graham Walker Sound - Crossroads
TTITLE8=Zulema - Giving Up
TTITLE9=Harry Beckett - Ring Within Rings
TTITLE10=Smiling Hard - Fire To The Galleon
TTITLE11=The Capprells with The Sul Brothers Band - Close Your Eyes
TTITLE12=Woolwich Polytechnic School Concert Band - The Sweeny
TTITLE13=Chuck Jackson - Candy
TTITLE14=John Fitch and Associates - Romantic Attitude
TTITLE15=Sharon Cash - Nature Boy
TTITLE16=Spunk - La Bimini
TTITLE17=Amral's Trinidad Cavaliers - It Sure Is Funky
TTITLE18=Özel Türkbas - Ozel's Dance Routine [Mr. Thing Re-Edit]
EXTD=
EXTT0=
EXTT1=
EXTT2=
EXTT3=
EXTT4=
EXTT5=
EXTT6=
EXTT7=
EXTT8=
EXTT9=
EXTT10=
EXTT11=
EXTT12=
EXTT13=
EXTT14=
EXTT15=
EXTT16=
EXTT17=
EXTT18=
PLAYORDER=
